<?xml version="1.0" standalone="no"?>
<!DOCTYPE svg PUBLIC "-//W3C//DTD SVG 20010904//EN"
 "http://www.w3.org/TR/2001/REC-SVG-20010904/DTD/svg10.dtd">
<svg version="1.0" xmlns="http://www.w3.org/2000/svg"
 width="512.000000pt" height="512.000000pt" viewBox="0 0 512.000000 512.000000"
 preserveAspectRatio="xMidYMid meet">
<metadata>
Created by potrace 1.14, written by Peter Selinger 2001-2017
</metadata>
<g transform="translate(0.000000,512.000000) scale(0.100000,-0.100000)"
fill="#000000" stroke="none">
<path d="M2310 4675 c-109 -11 -130 -17 -130 -40 0 -7 -12 -16 -27 -18 -27 -4
-26 -4 4 -6 17 0 35 4 38 10 4 5 19 8 33 4 15 -3 68 3 117 14 50 11 118 22
153 26 52 6 61 5 57 -7 -5 -12 4 -14 47 -11 99 8 247 -14 583 -87 46 -11 91
-13 83 -4 -9 9 -304 84 -388 99 -154 27 -405 36 -570 20z"/>
<path d="M1995 4609 c-79 -26 -205 -74 -250 -95 -27 -12 -90 -41 -138 -63 -48
-22 -100 -50 -115 -61 -39 -31 -126 -83 -209 -127 -40 -20 -73 -43 -73 -50 0
-7 -15 -19 -33 -26 -18 -8 -64 -50 -102 -93 -38 -43 -92 -104 -121 -134 -76
-80 -212 -288 -296 -452 -75 -146 -138 -314 -163 -436 -7 -37 -23 -110 -34
-162 -28 -134 -45 -412 -30 -498 7 -37 18 -76 25 -88 8 -11 13 -44 13 -75 -4
-162 136 -592 234 -721 14 -18 31 -44 37 -58 11 -27 40 -71 106 -166 99 -143
407 -430 507 -472 15 -6 27 -16 27 -20 0 -5 26 -26 58 -48 145 -97 503 -250
576 -246 11 1 28 -4 38 -9 11 -6 76 -20 146 -32 168 -28 497 -30 677 -4 112
16 157 27 325 79 149 47 78 49 -100 3 -140 -35 -131 -33 -248 -50 -150 -22
-451 -22 -587 -1 -60 9 -119 21 -130 27 -11 5 -44 14 -74 19 -199 37 -586 205
-697 302 -17 15 -49 38 -70 50 -67 39 -134 91 -134 104 0 11 -46 54 -139 132
-22 18 -73 83 -112 143 -40 60 -76 109 -80 109 -16 0 -90 115 -103 159 -7 25
-23 63 -35 84 -11 21 -21 44 -21 51 0 7 -9 24 -19 38 -19 23 -27 45 -71 198
-12 41 -26 84 -30 95 -29 71 -51 167 -56 249 -2 38 -8 85 -13 105 -14 55 -12
278 4 351 7 36 16 100 20 144 6 83 58 302 82 349 8 16 12 31 9 34 -5 6 21 85
32 93 4 3 16 31 26 62 11 32 28 67 38 78 11 11 35 53 55 93 46 93 100 186 138
234 17 21 48 61 70 89 22 28 53 67 68 87 16 20 32 35 36 34 4 -1 36 26 71 61
35 34 87 78 116 97 29 20 56 40 59 46 7 11 244 167 290 191 17 8 50 27 75 40
25 14 77 36 115 48 131 43 295 107 295 115 0 8 -54 4 -85 -6z"/>
<path d="M3296 4514 c-5 -13 -2 -15 15 -11 13 4 36 -4 60 -19 21 -13 47 -24
58 -24 11 0 27 -7 35 -15 8 -9 29 -21 46 -26 16 -6 30 -15 30 -20 0 -6 56 -37
124 -70 84 -40 123 -64 122 -75 -1 -10 16 -23 46 -35 26 -10 67 -30 90 -45 57
-35 41 -20 -64 63 -108 84 -140 107 -153 109 -6 1 -28 14 -50 29 -46 31 -138
79 -175 90 -14 4 -53 21 -87 36 -70 33 -88 35 -97 13z"/>
<path d="M3879 4156 c8 -9 28 -23 45 -30 37 -16 136 -103 136 -120 0 -7 17
-30 39 -52 21 -22 52 -59 69 -83 17 -23 33 -37 37 -31 14 23 36 7 70 -51 21
-36 33 -68 30 -79 -3 -11 4 -29 18 -46 13 -16 32 -43 40 -61 9 -17 30 -45 45
-63 28 -30 107 -218 132 -311 7 -24 17 -50 22 -57 6 -6 21 -40 34 -75 33 -90
29 -59 -10 73 -49 165 -81 252 -131 358 -46 97 -132 242 -144 242 -4 0 -14 12
-23 28 -9 15 -33 45 -54 67 -21 22 -77 85 -124 140 -95 109 -130 144 -130 128
0 -6 12 -18 26 -28 14 -9 23 -19 21 -22 -3 -2 -29 11 -59 30 -30 19 -65 40
-78 47 -23 12 -24 12 -11 -4z"/>
<path d="M3625 3574 c-201 -27 -294 -53 -425 -119 -207 -104 -355 -257 -456
-469 -72 -152 -77 -125 82 -425 76 -143 139 -260 140 -258 1 1 -4 31 -12 67
-18 86 -18 251 1 341 32 149 94 265 200 373 124 126 282 202 465 226 239 31
472 -35 632 -179 l60 -54 91 91 92 92 -45 46 c-119 123 -294 211 -489 248 -79
15 -284 27 -336 20z"/>
<path d="M820 2540 l0 -1020 145 0 145 0 2 754 3 755 605 -754 605 -754 123 0
122 -1 0 435 0 435 -142 269 -143 269 -5 -445 -5 -444 -565 703 c-311 386
-587 728 -613 760 l-48 58 -114 0 -115 0 0 -1020z"/>
<path d="M2310 3549 c0 -6 57 -120 128 -253 l127 -241 3 240 c1 132 0 245 -2
252 -7 17 -256 19 -256 2z"/>
<path d="M4621 3014 c0 -11 3 -14 6 -6 3 7 2 16 -1 19 -3 4 -6 -2 -5 -13z"/>
<path d="M4631 2965 c0 -16 6 -52 13 -80 18 -64 19 -39 1 45 -8 40 -13 53 -14
35z"/>
<path d="M4662 2810 c0 -14 2 -19 5 -12 2 6 2 18 0 25 -3 6 -5 1 -5 -13z"/>
<path d="M4670 2727 c0 -15 -4 -27 -10 -27 -11 0 -12 -151 -1 -190 5 -16 10
24 15 104 4 70 5 131 2 134 -4 3 -6 -7 -6 -21z"/>
<path d="M4662 2350 c0 -14 2 -19 5 -12 2 6 2 18 0 25 -3 6 -5 1 -5 -13z"/>
<path d="M4652 2300 c0 -14 2 -19 5 -12 2 6 2 18 0 25 -3 6 -5 1 -5 -13z"/>
<path d="M3132 1980 c20 -36 77 -144 128 -240 50 -96 98 -180 106 -186 8 -6
66 -22 129 -34 99 -19 135 -22 267 -17 84 3 185 12 223 21 91 21 214 69 295
117 76 45 198 143 207 166 5 12 -21 42 -86 105 l-92 89 -56 -51 c-71 -65 -168
-122 -268 -157 -75 -26 -91 -27 -245 -28 -133 0 -177 4 -230 19 -144 42 -240
98 -349 200 l-64 61 35 -65z"/>
<path d="M4581 2024 c0 -11 3 -14 6 -6 3 7 2 16 -1 19 -3 4 -6 -2 -5 -13z"/>
</g>
</svg>
